<?xml version="1.0" standalone="no"?>
<!DOCTYPE svg PUBLIC "-//W3C//DTD SVG 20010904//EN"
 "http://www.w3.org/TR/2001/REC-SVG-20010904/DTD/svg10.dtd">
<svg version="1.0" xmlns="http://www.w3.org/2000/svg"
 width="600.000000pt" height="600.000000pt" viewBox="0 0 600.000000 600.000000"
 preserveAspectRatio="xMidYMid meet">
<metadata>
Created by potrace 1.11, written by Peter Selinger 2001-2013
</metadata>
<g transform="translate(0.000000,600.000000) scale(0.100000,-0.100000)"
fill="#000000" stroke="none">
<path d="M0 3000 l0 -3000 3000 0 3000 0 0 3000 0 3000 -3000 0 -3000 0 0
-3000z m1780 1085 c334 -78 600 -340 674 -662 8 -39 19 -102 22 -142 l7 -71
-50 0 -49 0 -13 93 c-14 108 -55 234 -102 315 -19 31 -77 100 -129 153 -84 84
-107 101 -200 146 -139 68 -224 88 -370 87 -87 0 -134 -6 -193 -22 -120 -34
-240 -99 -327 -179 l-37 -32 -34 35 -34 36 54 49 c153 142 377 223 596 215 61
-2 144 -12 185 -21z m-56 -285 c222 -57 391 -222 446 -435 11 -43 20 -95 20
-117 l0 -38 -48 0 -47 0 -13 78 c-60 384 -529 565 -821 316 l-43 -37 -36 37
c-23 23 -33 39 -26 44 6 4 30 23 55 43 66 55 183 108 269 122 66 11 173 6 244
-13z m-1 -304 c93 -45 162 -140 174 -237 l6 -49 -52 0 c-47 0 -51 2 -51 23 0
13 -12 47 -26 76 -57 114 -206 155 -310 85 -19 -13 -41 -21 -47 -18 -24 14
-57 48 -57 59 0 16 75 65 125 82 63 21 173 11 238 -21z m1177 -163 c0 -5 -7
-51 -14 -103 -8 -52 -40 -277 -70 -500 -31 -223 -59 -415 -61 -427 -5 -22 -10
-23 -111 -23 l-106 0 6 28 c3 15 35 239 71 497 36 259 68 485 71 503 l6 32
104 0 c57 0 104 -3 104 -7z m-1287 -44 c81 -41 73 -169 -12 -214 -81 -41 -171
2 -171 83 0 92 108 169 183 131z m3061 -161 c0 -18 -4 -63 -8 -100 l-8 -68 91
0 c51 0 91 -4 91 -10 0 -5 -5 -43 -11 -85 l-11 -75 -93 0 -93 0 -12 -77 c-6
-43 -14 -114 -17 -159 -5 -77 -4 -82 18 -98 27 -18 100 -21 131 -5 19 10 20 9
15 -22 -4 -19 -9 -58 -13 -87 -8 -67 -21 -74 -138 -76 -144 -2 -212 34 -236
124 -8 28 -4 79 15 216 14 98 25 180 25 182 0 1 -30 2 -66 2 l-66 0 6 58 c14
117 9 111 84 114 l67 3 16 100 c9 55 17 100 18 100 0 0 45 -1 98 -2 l98 -2 -1
-33z m-2393 -177 c61 -23 140 -97 159 -147 56 -146 14 -314 -105 -422 -131
-120 -323 -153 -472 -81 -159 77 -208 274 -113 459 47 93 160 177 275 207 68
17 187 10 256 -16z m1217 -5 c91 -46 133 -128 133 -258 0 -42 -3 -88 -7 -102
l-6 -26 -238 0 c-141 0 -241 -4 -245 -10 -9 -15 21 -75 50 -98 56 -44 146 -36
209 18 18 17 37 30 41 30 4 0 33 -21 64 -47 31 -26 58 -48 60 -50 12 -8 -61
-67 -114 -93 -87 -42 -167 -55 -252 -40 -125 21 -215 91 -249 193 -24 72 -15
196 19 271 51 112 176 210 297 236 76 16 180 5 238 -24z m776 28 c10 -4 14
-14 11 -28 -2 -11 -9 -53 -15 -91 l-11 -71 -69 4 c-85 5 -130 -9 -169 -53 -37
-43 -47 -76 -71 -250 -11 -77 -22 -155 -25 -172 l-6 -33 -106 0 -105 0 5 28
c3 15 24 168 48 340 l44 312 104 0 104 0 -6 -52 -6 -53 27 30 c42 47 68 66
109 81 40 14 110 18 137 8z m1102 -29 c82 -40 85 -48 28 -98 -95 -84 -90 -81
-124 -57 -64 46 -170 30 -170 -24 0 -34 15 -42 118 -70 152 -41 195 -81 194
-182 -1 -151 -129 -246 -332 -248 -105 0 -177 17 -231 56 -40 29 -40 30 -22
50 10 11 44 43 76 70 l57 50 34 -30 c62 -54 188 -51 202 5 8 31 -11 48 -71 64
-131 33 -171 49 -204 83 -107 110 4 316 191 356 74 16 195 4 254 -25z m-4586
9 c0 -13 101 -438 105 -442 2 -3 55 97 116 222 l112 226 104 0 c56 0 103 -2
103 -4 0 -3 -255 -482 -322 -604 l-40 -73 -111 3 -112 3 -92 335 c-51 184 -92
336 -93 338 0 1 52 2 115 2 63 0 115 -2 115 -6z m830 -12 c0 -18 -74 -565 -85
-629 l-6 -33 -106 0 -105 0 5 28 c3 15 24 168 48 340 l44 312 102 0 c93 0 103
-2 103 -18z"/>
<path d="M2030 2779 c-46 -18 -90 -71 -106 -127 -35 -119 20 -202 133 -202
111 1 184 71 191 185 5 73 -13 117 -58 140 -32 17 -122 19 -160 4z"/>
<path d="M3263 2819 c-38 -11 -97 -67 -106 -98 -5 -21 -3 -21 134 -21 l139 0
0 28 c0 37 -25 71 -66 88 -38 16 -55 16 -101 3z"/>
</g>
</svg>
